<svg width="270" height="248" viewBox="0 0 270 248" fill="none" xmlns="http://www.w3.org/2000/svg">
<circle cx="129.332" cy="121" r="121" fill="#D6DDE8"/>
<rect x="37.3322" y="31" width="199" height="183" rx="20" fill="#989FAF"/>
<rect x="22.3322" y="31" width="199" height="183" rx="20" fill="url(#paint0_linear_1_72)"/>
<path d="M22.3322 51C22.3322 39.9543 31.2865 31 42.3322 31H221.332V81H22.3322V51Z" fill="#989FAF"/>
<rect x="85.3322" y="45" width="70" height="18" rx="9" fill="#F1F3F9"/>
<path d="M35.3322 105C35.3322 98.9249 40.257 94 46.3322 94H220.332V188H46.3322C40.257 188 35.3322 183.075 35.3322 177V105Z" fill="url(#paint1_linear_1_72)"/>
<circle cx="181.332" cy="54" r="9" fill="#F1F3F9"/>
<circle cx="59.3322" cy="54" r="9" fill="#F1F3F9"/>
<circle cx="40.8322" cy="192.5" r="35.5" fill="url(#paint2_linear_1_72)"/>
<path d="M181.346 165.306C177.863 170.283 171.005 171.496 166.027 168.013C161.049 164.531 164.832 157 164.332 151.5C163.782 145.45 169.854 149.212 174.832 152.694C179.81 156.177 184.828 160.328 181.346 165.306Z" fill="#989FAF"/>
<path d="M265.464 219.579C261.982 224.557 255.124 225.769 250.146 222.286C245.168 218.804 248.951 211.273 248.451 205.773C247.901 199.723 253.973 203.485 258.951 206.968C263.929 210.45 268.947 214.601 265.464 219.579Z" fill="#989FAF" fill-opacity="0.5"/>
<path d="M232.365 17.2349C230.138 20.4189 225.374 20.9309 221.726 18.3785C218.077 15.826 221.748 13.3733 221.156 9.6648C220.505 5.58536 228.112 5.42892 231.76 7.98133C235.409 10.5337 234.593 14.0509 232.365 17.2349Z" fill="#989FAF" fill-opacity="0.5"/>
<path d="M21.0509 17.1037C18.8235 20.2877 14.0601 20.7997 10.4116 18.2473C6.76308 15.6948 10.434 13.2421 9.84177 9.5336C9.19031 5.45417 16.7973 5.29773 20.4458 7.85014C24.0943 10.4025 23.2784 13.9197 21.0509 17.1037Z" fill="#989FAF" fill-opacity="0.5"/>
<path d="M13.4175 41.7208C12.4611 43.088 8.72798 42.1272 5.07947 39.5748C1.43095 37.0224 3.75621 36.4931 2.28113 34.0467C0.65849 31.3555 6.79728 33.2977 10.4458 35.8501C14.0943 38.4025 14.374 40.3536 13.4175 41.7208Z" fill="#989FAF" fill-opacity="0.5"/>
<path d="M248.798 244.193C247.386 246.211 244.198 246.418 241.678 244.655C239.158 242.891 240.591 239.768 240.094 237.332C239.547 234.652 242.598 236.59 245.119 238.353C247.639 240.116 250.21 242.174 248.798 244.193Z" fill="#989FAF" fill-opacity="0.5"/>
<rect x="27.1224" y="171.859" width="46.8346" height="10.3345" rx="5.16725" transform="rotate(45 27.1224 171.859)" fill="#F1F3F9"/>
<rect x="19.8148" y="204.976" width="46.8346" height="10.3345" rx="5.16725" transform="rotate(-45 19.8148 204.976)" fill="#F1F3F9"/>
<rect x="78.8436" y="117" width="20.4523" height="6.73347" rx="3.36674" transform="rotate(31.4319 78.8436 117)" fill="#989FAF"/>
<rect x="95.8647" y="130.465" width="20.4523" height="6.73347" rx="3.36674" transform="rotate(144.25 95.8647 130.465)" fill="#989FAF"/>
<rect x="159.783" y="142.411" width="20.4523" height="6.73347" rx="3.36674" transform="rotate(-148.568 159.783 142.411)" fill="#989FAF"/>
<rect x="142.332" y="128.949" width="20.4523" height="6.73347" rx="3.36674" transform="rotate(-35.7504 142.332 128.949)" fill="#989FAF"/>
<path d="M139.332 166.489C139.332 172.56 129.979 171.985 119.098 171.985C108.218 171.985 98.3322 172.56 98.3322 166.489C98.3322 160.418 108.218 150 119.098 150C129.979 150 139.332 160.418 139.332 166.489Z" fill="#989FAF"/>
<path d="M129.332 166.748C129.332 168.127 124.77 167.997 119.462 167.997C114.154 167.997 109.332 168.127 109.332 166.748C109.332 165.368 114.154 163 119.462 163C124.77 163 129.332 165.368 129.332 166.748Z" fill="#F1F3F9"/>
<defs>
<linearGradient id="paint0_linear_1_72" x1="22.3322" y1="122.5" x2="221.332" y2="122.5" gradientUnits="userSpaceOnUse">
<stop stop-color="#F1F3F9"/>
<stop offset="1" stop-color="#EAECF3"/>
</linearGradient>
<linearGradient id="paint1_linear_1_72" x1="35.3322" y1="127" x2="220.332" y2="141" gradientUnits="userSpaceOnUse">
<stop stop-color="#D0D2D9"/>
<stop offset="1" stop-color="#F1F3F9"/>
</linearGradient>
<linearGradient id="paint2_linear_1_72" x1="8.33215" y1="181" x2="71.3322" y2="220.5" gradientUnits="userSpaceOnUse">
<stop offset="0.465" stop-color="#989FAF"/>
<stop offset="0.935" stop-color="#3F4249"/>
</linearGradient>
</defs>
</svg>
